<svg width="122" height="122" viewBox="0 0 122 122" fill="none" xmlns="http://www.w3.org/2000/svg">
<g filter="url(#filter0_f_30_726)">
<rect x="32.6357" y="32.8972" width="56.1028" height="56.1028" rx="16.2617" fill="url(#paint0_linear_30_726)"/>
</g>
<rect x="18" y="2" width="81.3084" height="81.3084" rx="16.2617" fill="url(#paint1_linear_30_726)"/>
<path d="M55.4781 31.9478L48.6706 20.6052C48.3907 20.1386 47.9949 19.7524 47.5214 19.4842C47.048 19.2159 46.5132 19.0749 45.9691 19.0747H35.0246C34.7364 19.0746 34.4537 19.1536 34.2072 19.3031C33.9608 19.4525 33.7601 19.6667 33.6269 19.9223C33.4938 20.1779 33.4333 20.4651 33.4521 20.7526C33.4708 21.0402 33.5681 21.3171 33.7334 21.5533L44.6905 37.2045C47.6772 34.4094 51.4361 32.5777 55.4781 31.9478ZM82.2841 19.0747H71.3396C70.7955 19.0749 70.2606 19.2159 69.7872 19.4842C69.3138 19.7524 68.9179 20.1386 68.6381 20.6052L61.8305 31.9478C65.8708 32.5784 69.628 34.4095 72.614 37.2031L83.5753 21.5533C83.7405 21.3171 83.8378 21.0402 83.8566 20.7526C83.8754 20.4651 83.8149 20.1779 83.6817 19.9223C83.5486 19.6667 83.3479 19.4525 83.1014 19.3031C82.855 19.1536 82.5723 19.0746 82.2841 19.0747ZM58.6543 34.8282C55.2267 34.8282 51.876 35.8445 49.026 37.7486C46.176 39.6528 43.9547 42.3592 42.643 45.5256C41.3313 48.692 40.9881 52.1763 41.6568 55.5377C42.3255 58.8992 43.9761 61.9869 46.3998 64.4104C48.8235 66.8339 51.9115 68.4843 55.2733 69.1529C58.6351 69.8216 62.1197 69.4784 65.2864 68.1668C68.4532 66.8553 71.1598 64.6342 73.0641 61.7845C74.9684 58.9347 75.9849 55.5844 75.9849 52.1571C75.9849 47.5612 74.159 43.1535 70.9089 39.9037C67.6588 36.6539 63.2507 34.8282 58.6543 34.8282ZM67.7642 50.3114L64.0292 53.9523L64.9129 59.0942C64.9484 59.302 64.925 59.5155 64.8454 59.7107C64.7659 59.9059 64.6333 60.0749 64.4627 60.1987C64.2922 60.3225 64.0904 60.3962 63.8801 60.4113C63.6699 60.4265 63.4596 60.3825 63.273 60.2845L58.6543 57.8563L54.0329 60.2831C53.8463 60.3811 53.636 60.4251 53.4258 60.4099C53.2155 60.3948 53.0137 60.3211 52.8431 60.1973C52.6725 60.0735 52.54 59.9045 52.4604 59.7093C52.3809 59.5141 52.3575 59.3006 52.3929 59.0928L53.2766 53.9509L49.5416 50.31C49.391 50.1628 49.2844 49.9764 49.234 49.7718C49.1835 49.5673 49.1912 49.3527 49.2561 49.1523C49.3211 48.9519 49.4406 48.7736 49.6014 48.6375C49.7622 48.5013 49.9578 48.4128 50.1662 48.3818L55.3283 47.6299L57.6348 42.9514C57.7286 42.7626 57.8733 42.6037 58.0526 42.4926C58.2318 42.3815 58.4385 42.3226 58.6494 42.3226C58.8603 42.3226 59.067 42.3815 59.2463 42.4926C59.4255 42.6037 59.5702 42.7626 59.6641 42.9514L61.9706 47.6299L67.1326 48.3818C67.341 48.4128 67.5366 48.5013 67.6974 48.6375C67.8582 48.7736 67.9778 48.9519 68.0427 49.1523C68.1077 49.3527 68.1153 49.5673 68.0649 49.7718C68.0144 49.9764 67.9079 50.1628 67.7572 50.31L67.7642 50.3114Z" fill="white"/>
<defs>
<filter id="filter0_f_30_726" x="0.112377" y="0.373852" width="121.15" height="121.15" filterUnits="userSpaceOnUse" color-interpolation-filters="sRGB">
<feFlood flood-opacity="0" result="BackgroundImageFix"/>
<feBlend mode="normal" in="SourceGraphic" in2="BackgroundImageFix" result="shape"/>
<feGaussianBlur stdDeviation="16.2617" result="effect1_foregroundBlur_30_726"/>
</filter>
<linearGradient id="paint0_linear_30_726" x1="32.6357" y1="35.7024" x2="88.7385" y2="89" gradientUnits="userSpaceOnUse">
<stop stop-color="#FFAC0A" stop-opacity="0.64"/>
<stop offset="0.0001" stop-color="#DB1A3D" stop-opacity="0.34"/>
<stop offset="1" stop-color="#FF8A00" stop-opacity="0.84"/>
</linearGradient>
<linearGradient id="paint1_linear_30_726" x1="18" y1="6.06542" x2="99.3084" y2="83.3084" gradientUnits="userSpaceOnUse">
<stop stop-color="#DC212D" stop-opacity="0.32"/>
<stop offset="0.310644" stop-color="#F2893C" stop-opacity="0.64"/>
<stop offset="0.6125" stop-color="#E86C13" stop-opacity="0.47"/>
<stop offset="0.794792" stop-color="#E1551F" stop-opacity="0.582128"/>
<stop offset="1" stop-color="#D83232" stop-opacity="0.64"/>
</linearGradient>
</defs>
</svg>
