<svg width="122" height="122" viewBox="0 0 122 122" fill="none" xmlns="http://www.w3.org/2000/svg">
<g filter="url(#filter0_f_30_727)">
<rect x="32.6355" y="32.8972" width="56.1028" height="56.1028" rx="16.2617" fill="url(#paint0_linear_30_727)"/>
</g>
<rect x="18" y="2" width="81.3084" height="81.3084" rx="16.2617" fill="url(#paint1_linear_30_727)"/>
<path d="M50.4225 24.0572C50.4222 22.4287 50.9049 20.8367 51.8094 19.4825C52.714 18.1284 53.9998 17.0729 55.5043 16.4495C57.0088 15.8262 58.6644 15.663 60.2617 15.9806C61.8589 16.2983 63.3261 17.0824 64.4776 18.2339C65.6292 19.3854 66.4133 20.8526 66.731 22.4498C67.0486 24.047 66.8854 25.7025 66.2621 27.207C65.6387 28.7114 64.5832 29.9973 63.229 30.9018C61.8748 31.8063 60.2827 32.289 58.6542 32.2886C56.471 32.2886 54.3773 31.4214 52.8335 29.8777C51.2898 28.334 50.4225 26.2403 50.4225 24.0572V24.0572ZM79.5309 24.2198C79.1912 23.8801 78.7878 23.6106 78.3439 23.4267C77.9 23.2428 77.4242 23.1482 76.9437 23.1482C76.4632 23.1482 75.9874 23.2428 75.5435 23.4267C75.0996 23.6106 74.6962 23.8801 74.3565 24.2198L64.4564 34.118H52.852L42.9471 24.2133C42.2609 23.5271 41.3302 23.1417 40.3598 23.1417C39.3894 23.1417 38.4588 23.5271 37.7726 24.2133C37.0864 24.8995 36.7009 25.8301 36.7009 26.8005C36.7009 27.7708 37.0864 28.7015 37.7726 29.3876L48.5915 40.2062V70.7058C48.5915 71.1864 48.6862 71.6623 48.8701 72.1063C49.0541 72.5503 49.3238 72.9537 49.6637 73.2935C50.0036 73.6333 50.4072 73.9028 50.8513 74.0865C51.2954 74.2703 51.7714 74.3648 52.252 74.3646H54.0814C55.0518 74.3646 55.9825 73.9791 56.6686 73.2929C57.3548 72.6068 57.7403 71.6762 57.7403 70.7058V57.9001H59.5697V70.7058C59.5697 71.6762 59.9552 72.6068 60.6414 73.2929C61.3276 73.9791 62.2582 74.3646 63.2286 74.3646H65.058C65.5385 74.3646 66.0143 74.2699 66.4582 74.0861C66.9021 73.9022 67.3055 73.6327 67.6453 73.2929C67.985 72.9532 68.2545 72.5498 68.4384 72.1059C68.6223 71.662 68.7169 71.1863 68.7169 70.7058V40.2062L79.5358 29.3876C79.8756 29.0479 80.1451 28.6445 80.329 28.2006C80.5128 27.7567 80.6075 27.281 80.6075 26.8005C80.6075 26.32 80.5128 25.8442 80.329 25.4003C80.1451 24.9564 79.8756 24.5531 79.5358 24.2133L79.5309 24.2198Z" fill="white"/>
<defs>
<filter id="filter0_f_30_727" x="0.112133" y="0.373852" width="121.15" height="121.15" filterUnits="userSpaceOnUse" color-interpolation-filters="sRGB">
<feFlood flood-opacity="0" result="BackgroundImageFix"/>
<feBlend mode="normal" in="SourceGraphic" in2="BackgroundImageFix" result="shape"/>
<feGaussianBlur stdDeviation="16.2617" result="effect1_foregroundBlur_30_727"/>
</filter>
<linearGradient id="paint0_linear_30_727" x1="32.6355" y1="35.7024" x2="88.7383" y2="89" gradientUnits="userSpaceOnUse">
<stop stop-color="#FFAC0A" stop-opacity="0.64"/>
<stop offset="0.0001" stop-color="#DB1A3D" stop-opacity="0.34"/>
<stop offset="1" stop-color="#FF8A00" stop-opacity="0.84"/>
</linearGradient>
<linearGradient id="paint1_linear_30_727" x1="18" y1="6.06542" x2="99.3084" y2="83.3084" gradientUnits="userSpaceOnUse">
<stop stop-color="#DC212D" stop-opacity="0.32"/>
<stop offset="0.310644" stop-color="#F2893C" stop-opacity="0.64"/>
<stop offset="0.6125" stop-color="#E86C13" stop-opacity="0.47"/>
<stop offset="0.794792" stop-color="#E1551F" stop-opacity="0.582128"/>
<stop offset="1" stop-color="#D83232" stop-opacity="0.64"/>
</linearGradient>
</defs>
</svg>
