<svg width="125" height="125" viewBox="0 0 125 125" fill="none" xmlns="http://www.w3.org/2000/svg">
<g filter="url(#filter0_f_30_729)">
<rect x="33.9399" y="33.54" width="57.27" height="57.27" rx="16.6" fill="url(#paint0_linear_30_729)"/>
</g>
<rect x="19" y="2" width="83" height="83" rx="16.6" fill="url(#paint1_linear_30_729)"/>
<path d="M82.3151 25.2402H37.5736C36.1704 25.2428 34.8255 25.8014 33.8333 26.7935C32.8411 27.7857 32.2826 29.1306 32.28 30.5338V55.1676C32.2826 56.5708 32.8411 57.9157 33.8333 58.9079C34.8255 59.9 36.1704 60.4586 37.5736 60.4612H82.3265C83.729 60.4582 85.0733 59.8997 86.0651 58.9079C87.0569 57.9161 87.6154 56.5718 87.6184 55.1692V30.5338C87.6115 29.1303 87.0503 27.7863 86.0569 26.7948C85.0636 25.8033 83.7186 25.2445 82.3151 25.2402V25.2402ZM84.4075 55.1546C84.4075 55.7095 84.187 56.2418 83.7946 56.6342C83.4022 57.0265 82.87 57.247 82.3151 57.247H37.5736C37.0186 57.247 36.4864 57.0265 36.094 56.6342C35.7016 56.2418 35.4812 55.7095 35.4812 55.1546V30.5338C35.4812 29.9788 35.7016 29.4466 36.094 29.0542C36.4864 28.6618 37.0186 28.4414 37.5736 28.4414H82.3265C82.8814 28.4414 83.4136 28.6618 83.806 29.0542C84.1984 29.4466 84.4188 29.9788 84.4188 30.5338V55.1562L84.4075 55.1546Z" fill="white"/>
<path d="M80.5203 30.9556H39.3685C39.0048 30.9564 38.6563 31.1013 38.3992 31.3584C38.142 31.6156 37.9972 31.9641 37.9963 32.3277V53.3605C37.9972 53.7241 38.142 54.0726 38.3992 54.3298C38.6563 54.5869 39.0048 54.7318 39.3685 54.7326H80.5203C80.8839 54.7318 81.2324 54.5869 81.4896 54.3298C81.7467 54.0726 81.8916 53.7241 81.8924 53.3605V32.3277C81.8916 31.9641 81.7467 31.6156 81.4896 31.3584C81.2324 31.1013 80.8839 30.9564 80.5203 30.9556V30.9556Z" fill="white"/>
<path d="M72.9766 62.7363H46.9121C46.4876 62.7363 46.0805 62.905 45.7803 63.2051C45.4802 63.5053 45.3115 63.9124 45.3115 64.3369C45.3115 64.7614 45.4802 65.1685 45.7803 65.4687C46.0805 65.7689 46.4876 65.9375 46.9121 65.9375H72.9766C73.4011 65.9375 73.8082 65.7689 74.1084 65.4687C74.4086 65.1685 74.5772 64.7614 74.5772 64.3369C74.5772 63.9124 74.4086 63.5053 74.1084 63.2051C73.8082 62.905 73.4011 62.7363 72.9766 62.7363V62.7363Z" fill="white"/>
<defs>
<filter id="filter0_f_30_729" x="0.739941" y="0.340038" width="123.67" height="123.67" filterUnits="userSpaceOnUse" color-interpolation-filters="sRGB">
<feFlood flood-opacity="0" result="BackgroundImageFix"/>
<feBlend mode="normal" in="SourceGraphic" in2="BackgroundImageFix" result="shape"/>
<feGaussianBlur stdDeviation="16.6" result="effect1_foregroundBlur_30_729"/>
</filter>
<linearGradient id="paint0_linear_30_729" x1="33.9399" y1="36.4035" x2="91.2099" y2="90.81" gradientUnits="userSpaceOnUse">
<stop stop-color="#FFAC0A" stop-opacity="0.64"/>
<stop offset="0.0001" stop-color="#DB1A3D" stop-opacity="0.34"/>
<stop offset="1" stop-color="#FF8A00" stop-opacity="0.84"/>
</linearGradient>
<linearGradient id="paint1_linear_30_729" x1="19" y1="6.15" x2="102" y2="85" gradientUnits="userSpaceOnUse">
<stop stop-color="#DC212D" stop-opacity="0.32"/>
<stop offset="0.310644" stop-color="#F2893C" stop-opacity="0.64"/>
<stop offset="0.6125" stop-color="#E86C13" stop-opacity="0.47"/>
<stop offset="0.794792" stop-color="#E1551F" stop-opacity="0.582128"/>
<stop offset="1" stop-color="#D83232" stop-opacity="0.64"/>
</linearGradient>
</defs>
</svg>
