<svg width="124" height="123" viewBox="0 0 124 123" fill="none" xmlns="http://www.w3.org/2000/svg">
<g filter="url(#filter0_f_30_728)">
<rect x="33.8037" y="33.2524" width="56.7477" height="56.7477" rx="16.4486" fill="url(#paint0_linear_30_728)"/>
</g>
<rect x="19" y="2" width="82.243" height="82.243" rx="16.4486" fill="url(#paint1_linear_30_728)"/>
<path d="M43.9675 36.023L52.2345 39.0089C55.0831 32.4602 59.2131 27.4205 63.4871 25.0582C59.6562 24.8677 55.8346 25.5824 52.3365 27.1435C48.8385 28.7046 45.7642 31.0675 43.3665 34.0377C43.2441 34.1989 43.1617 34.3864 43.126 34.5851C43.0902 34.7838 43.1021 34.988 43.1606 35.1812C43.2191 35.3745 43.3226 35.5514 43.4628 35.6976C43.603 35.8439 43.7759 35.9553 43.9675 36.023V36.023ZM54.6755 39.8908L73.9809 46.8644C76.8755 37.115 75.495 28.2577 70.5267 26.4655C69.9284 26.2506 69.2966 26.142 68.6603 26.1445C63.9626 26.1445 58.2759 31.7006 54.6743 39.8908H54.6755ZM76.8444 29.8866C77.3863 31.3142 77.7453 32.8036 77.9129 34.3198C78.2988 38.847 77.7776 43.4051 76.3793 47.7314L84.6866 50.7287C84.8776 50.7995 85.0827 50.8244 85.2853 50.8017C85.4878 50.7789 85.6821 50.709 85.8523 50.5977C86.0225 50.4864 86.1639 50.3368 86.2648 50.1611C86.3658 49.9853 86.4235 49.7885 86.4333 49.5865C86.5189 45.7845 85.6945 42.0167 84.0276 38.5922C82.3607 35.1677 79.899 32.1842 76.8444 29.8866V29.8866ZM79.9624 61.0093H60.619L65.8762 46.6748L61.007 44.9157L55.1049 61.0093H35.9215C35.5782 61.0093 35.2489 61.1445 35.006 61.3853C34.7631 61.626 34.6265 61.9526 34.6262 62.2932V64.8645C34.6262 65.2053 34.7627 65.5322 35.0056 65.7732C35.2485 66.0142 35.578 66.1496 35.9215 66.1496H79.9624C80.1326 66.1496 80.3011 66.1163 80.4584 66.0516C80.6156 65.987 80.7585 65.8922 80.8787 65.7728C80.999 65.6533 81.0944 65.5115 81.1595 65.3555C81.2245 65.1994 81.2579 65.0322 81.2577 64.8634V62.2932C81.2574 61.9526 81.1208 61.626 80.8779 61.3853C80.635 61.1445 80.3058 61.0093 79.9624 61.0093V61.0093Z" fill="white"/>
<defs>
<filter id="filter0_f_30_728" x="0.906517" y="0.355247" width="122.542" height="122.542" filterUnits="userSpaceOnUse" color-interpolation-filters="sRGB">
<feFlood flood-opacity="0" result="BackgroundImageFix"/>
<feBlend mode="normal" in="SourceGraphic" in2="BackgroundImageFix" result="shape"/>
<feGaussianBlur stdDeviation="16.4486" result="effect1_foregroundBlur_30_728"/>
</filter>
<linearGradient id="paint0_linear_30_728" x1="33.8037" y1="36.0898" x2="90.5514" y2="90.0001" gradientUnits="userSpaceOnUse">
<stop stop-color="#FFAC0A" stop-opacity="0.64"/>
<stop offset="0.0001" stop-color="#DB1A3D" stop-opacity="0.34"/>
<stop offset="1" stop-color="#FF8A00" stop-opacity="0.84"/>
</linearGradient>
<linearGradient id="paint1_linear_30_728" x1="19" y1="6.11215" x2="101.243" y2="84.243" gradientUnits="userSpaceOnUse">
<stop stop-color="#DC212D" stop-opacity="0.32"/>
<stop offset="0.310644" stop-color="#F2893C" stop-opacity="0.64"/>
<stop offset="0.6125" stop-color="#E86C13" stop-opacity="0.47"/>
<stop offset="0.794792" stop-color="#E1551F" stop-opacity="0.582128"/>
<stop offset="1" stop-color="#D83232" stop-opacity="0.64"/>
</linearGradient>
</defs>
</svg>
