<svg width="149" height="149" viewBox="0 0 149 149" fill="none" xmlns="http://www.w3.org/2000/svg">
<g filter="url(#filter0_f_193_24)">
<rect x="40" y="40" width="69" height="69" rx="20" fill="url(#paint0_linear_193_24)"/>
</g>
<rect x="22" y="2" width="100" height="100" rx="20" fill="url(#paint1_linear_193_24)"/>
<path d="M61.0402 23.7497C59.744 23.7497 58.6097 24.6434 58.2817 25.923C57.6298 28.4664 55.3377 30.2451 52.7121 30.2451C52.5278 30.2451 52.3597 30.2371 52.2106 30.2254C50.7206 30.3308 49.5407 31.5767 49.5407 33.093C49.5407 33.2635 49.5625 33.4389 49.6054 33.6144C50.2805 36.3764 48.8355 39.217 46.2056 40.2978C44.3022 41.08 43.0723 42.9069 43.0723 44.9518C43.0723 45.6699 43.2522 46.3929 43.6223 47.1621C44.9281 49.8762 43.9181 53.1381 41.3071 54.6394C39.7122 55.5565 38.76 57.1742 38.76 58.9668C38.76 61.0083 39.9791 62.832 41.8658 63.6127C44.3948 64.6592 45.8356 67.3434 45.3101 70.0295C45.2551 70.3104 45.2284 70.5708 45.2284 70.8256C45.2284 73.0053 47.0017 74.7785 49.1814 74.7785C49.3169 74.7785 49.5193 74.7545 49.7829 74.7072C52.5875 74.2039 55.3378 75.8308 56.2474 78.5311C56.7027 79.883 58.0279 81.247 59.9621 81.247C62.1418 81.247 63.915 79.4737 63.915 77.294V26.6246C63.915 25.0394 62.6254 23.7497 61.0402 23.7497ZM82.6016 23.7497C81.0164 23.7497 79.7268 25.0394 79.7268 26.6246V77.294C79.7268 79.4737 81.5001 81.247 83.6797 81.247C85.6139 81.247 86.9391 79.883 87.3944 78.5311C88.304 75.8308 91.0543 74.2039 93.8589 74.7072C94.1226 74.7545 94.3249 74.7785 94.4604 74.7785C96.6401 74.7785 98.4134 73.0053 98.4134 70.8256C98.4134 70.5708 98.3867 70.3104 98.3317 70.0295C97.8062 67.3434 99.247 64.6592 101.776 63.6127C103.663 62.832 104.882 61.0083 104.882 58.9668C104.882 57.1742 103.93 55.5565 102.335 54.6394C99.709 53.1296 98.7047 49.8418 100.039 47.1226C100.396 46.3945 100.57 45.6844 100.57 44.9518C100.57 42.9069 99.3396 41.08 97.4362 40.2978C94.8487 39.2345 93.4021 36.4632 94.0089 33.7324C94.0851 33.3895 94.1011 33.1955 94.1011 33.093C94.1011 31.5763 92.9205 30.3302 91.4301 30.2253C91.2818 30.2371 91.115 30.2451 90.9298 30.2451C88.3041 30.2451 86.012 28.4664 85.3601 25.923C85.0321 24.6434 83.8978 23.7497 82.6016 23.7497ZM61.0402 18C65.7972 18 69.6648 21.8676 69.6648 26.6246V77.294C69.6648 82.6575 65.3255 86.9967 59.9621 86.9967C55.6767 86.9967 52.0922 84.2072 50.7985 80.3666C50.2729 80.4609 49.7339 80.5283 49.1814 80.5283C43.8179 80.5283 39.4787 76.189 39.4787 70.8256C39.4787 70.1788 39.5461 69.5454 39.6674 68.9255C35.7594 67.3084 33.0103 63.4543 33.0103 58.9668C33.0103 54.9645 35.2068 51.5146 38.441 49.6549C37.7538 48.2265 37.3225 46.6498 37.3225 44.9518C37.3225 40.4509 40.0851 36.5968 44.0201 34.9796C43.8719 34.3732 43.791 33.7399 43.791 33.093C43.791 28.336 47.6586 24.4684 52.4156 24.4684C52.5234 24.4684 52.6042 24.4954 52.7121 24.4954C53.6688 20.7626 57.0109 18 61.0402 18ZM82.6016 18C86.6309 18 89.973 20.7626 90.9298 24.4954C91.0241 24.4954 91.1184 24.4684 91.2262 24.4684C95.9832 24.4684 99.8508 28.336 99.8508 33.093C99.8508 33.7399 99.7565 34.3732 99.6217 34.9796C103.557 36.5968 106.319 40.4509 106.319 44.9518C106.319 46.6498 105.902 48.2265 105.201 49.6549C108.435 51.5146 110.632 54.9645 110.632 58.9668C110.632 63.4543 107.882 67.3084 103.974 68.9255C104.096 69.5454 104.163 70.1788 104.163 70.8256C104.163 76.189 99.8239 80.5283 94.4604 80.5283C93.9079 80.5283 93.3689 80.4609 92.8433 80.3666C91.5497 84.2072 87.9651 86.9967 83.6797 86.9967C78.3163 86.9967 73.9771 82.6575 73.9771 77.294V26.6246C73.9771 21.8541 77.8446 18 82.6016 18Z" fill="white"/>
<defs>
<filter id="filter0_f_193_24" x="0" y="0" width="149" height="149" filterUnits="userSpaceOnUse" color-interpolation-filters="sRGB">
<feFlood flood-opacity="0" result="BackgroundImageFix"/>
<feBlend mode="normal" in="SourceGraphic" in2="BackgroundImageFix" result="shape"/>
<feGaussianBlur stdDeviation="20" result="effect1_foregroundBlur_193_24"/>
</filter>
<linearGradient id="paint0_linear_193_24" x1="40" y1="43.45" x2="109" y2="109" gradientUnits="userSpaceOnUse">
<stop stop-color="#FFAC0A" stop-opacity="0.64"/>
<stop offset="0.0001" stop-color="#DB1A3D" stop-opacity="0.34"/>
<stop offset="1" stop-color="#FF8A00" stop-opacity="0.84"/>
</linearGradient>
<linearGradient id="paint1_linear_193_24" x1="22" y1="7" x2="122" y2="102" gradientUnits="userSpaceOnUse">
<stop stop-color="#DC212D" stop-opacity="0.32"/>
<stop offset="0.310644" stop-color="#F2893C" stop-opacity="0.64"/>
<stop offset="0.6125" stop-color="#E86C13" stop-opacity="0.47"/>
<stop offset="0.794792" stop-color="#E1551F" stop-opacity="0.582128"/>
<stop offset="1" stop-color="#D83232" stop-opacity="0.64"/>
</linearGradient>
</defs>
</svg>
