<svg width="149" height="149" viewBox="0 0 149 149" fill="none" xmlns="http://www.w3.org/2000/svg">
<g filter="url(#filter0_f_187_39)">
<rect x="40" y="40" width="69" height="69" rx="20" fill="url(#paint0_linear_187_39)"/>
</g>
<rect x="22" y="2" width="100" height="100" rx="20" fill="url(#paint1_linear_187_39)"/>
<path d="M72 85C72.291 85.4066 72.2912 85.4065 72.2913 85.4064L72.292 85.4059L72.2944 85.4041L72.3037 85.3974L72.3399 85.3714C72.3717 85.3484 72.4187 85.3144 72.4804 85.2695C72.6037 85.1796 72.7853 85.0465 73.0196 84.8726C73.4883 84.5246 74.1679 84.0133 75.0139 83.358C76.7058 82.0477 79.0636 80.1613 81.7299 77.8558C87.0577 73.249 93.6357 66.9525 98.5881 60.2222C103.335 53.8799 106.087 46.2829 106.499 38.3878L106.5 38.3747L106.5 38.3615C106.498 33.3876 104.521 28.6163 100.999 25.0845C97.478 21.5529 92.6974 19.5463 87.6969 19.5L87.6923 20V19.5L87.5296 19.5L87.5272 19.5C84.3537 19.515 81.2338 20.316 78.4497 21.8308C75.8848 23.2263 73.6792 25.1871 72 27.5593C70.3208 25.1871 68.1152 23.2263 65.5503 21.8308C62.7662 20.316 59.6463 19.515 56.4728 19.5H56.4704L56.3077 19.5L56.3031 19.5C51.3026 19.5463 46.522 21.5529 43.0008 25.0845C39.4795 28.6163 37.5023 33.3876 37.5 38.3615L37.5 38.3747L37.5007 38.3878C37.9127 46.283 40.6655 53.8801 45.4121 60.2224C50.3644 66.9526 56.9423 73.249 62.2701 77.8558C64.9364 80.1613 67.2942 82.0477 68.9861 83.358C69.8321 84.0133 70.5117 84.5246 70.9804 84.8726C71.2147 85.0465 71.3963 85.1796 71.5196 85.2695C71.5813 85.3144 71.6283 85.3484 71.6601 85.3714L71.6963 85.3974L71.7056 85.4041L71.708 85.4059L71.7087 85.4064C71.7088 85.4065 71.709 85.4066 72 85ZM72 85L72.291 85.4066L72 85.6149L71.709 85.4066L72 85ZM75.8452 30.9408C75.4272 31.5725 74.8578 32.0911 74.1882 32.45C73.5187 32.8089 72.77 32.9967 72.0093 32.9967C71.2486 32.9967 70.4999 32.8089 69.8304 32.45C69.1608 32.0911 68.5914 31.5725 68.1734 30.9408H75.8452ZM75.8452 30.9408C77.1074 29.028 78.8116 27.4431 80.8156 26.3186L75.8452 30.9408ZM62.9611 26.7549L62.9616 26.7551C64.8979 27.8364 66.5424 29.3665 67.7554 31.2151L67.7564 31.2167C68.2203 31.9177 68.8519 32.4928 69.5942 32.8907C70.3364 33.2885 71.1663 33.4967 72.0093 33.4967C72.8523 33.4967 73.6822 33.2885 74.4244 32.8907C75.1667 32.4928 75.7983 31.9177 76.2622 31.2167L76.2625 31.2162C77.4807 29.3702 79.1255 27.8404 81.0601 26.7547C83.0364 25.6485 85.2661 25.0663 87.5346 25.0644H87.6788C91.2085 25.092 94.5836 26.5058 97.0682 28.9967C99.5495 31.4842 100.942 34.8442 100.943 38.3457C100.509 45.0715 98.1295 51.5298 94.0915 56.9446L94.0661 56.9788C87.6451 65.0861 80.2326 72.3657 72.0002 78.6493C63.7549 72.3487 56.3321 65.0501 49.9038 56.9222C45.8564 51.5234 43.4839 45.0671 43.0775 38.3467C43.0789 34.8449 44.4712 31.4844 46.9527 28.9967C49.4373 26.5058 52.8124 25.092 56.3422 25.0644H56.4863C58.7549 25.0663 60.9847 25.6485 62.9611 26.7549Z" fill="white" stroke="white"/>
<defs>
<filter id="filter0_f_187_39" x="0" y="0" width="149" height="149" filterUnits="userSpaceOnUse" color-interpolation-filters="sRGB">
<feFlood flood-opacity="0" result="BackgroundImageFix"/>
<feBlend mode="normal" in="SourceGraphic" in2="BackgroundImageFix" result="shape"/>
<feGaussianBlur stdDeviation="20" result="effect1_foregroundBlur_187_39"/>
</filter>
<linearGradient id="paint0_linear_187_39" x1="40" y1="43.45" x2="109" y2="109" gradientUnits="userSpaceOnUse">
<stop stop-color="#FFAC0A" stop-opacity="0.64"/>
<stop offset="0.0001" stop-color="#DB1A3D" stop-opacity="0.34"/>
<stop offset="1" stop-color="#FF8A00" stop-opacity="0.84"/>
</linearGradient>
<linearGradient id="paint1_linear_187_39" x1="22" y1="7" x2="122" y2="102" gradientUnits="userSpaceOnUse">
<stop stop-color="#DC212D" stop-opacity="0.32"/>
<stop offset="0.310644" stop-color="#F2893C" stop-opacity="0.64"/>
<stop offset="0.6125" stop-color="#E86C13" stop-opacity="0.47"/>
<stop offset="0.794792" stop-color="#E1551F" stop-opacity="0.582128"/>
<stop offset="1" stop-color="#D83232" stop-opacity="0.64"/>
</linearGradient>
</defs>
</svg>
