<svg width="149" height="149" viewBox="0 0 149 149" fill="none" xmlns="http://www.w3.org/2000/svg">
<g filter="url(#filter0_f_193_17)">
<rect x="40" y="40" width="69" height="69" rx="20" fill="url(#paint0_linear_193_17)"/>
</g>
<rect x="22" y="2" width="100" height="100" rx="20" fill="url(#paint1_linear_193_17)"/>
<path d="M98.3146 53.4037C96.7642 53.3249 95.231 53.7615 93.9488 54.6468C92.6666 55.5321 91.706 56.8175 91.2135 58.3068H85.4828L81.2922 45.588C81.1369 45.111 80.8367 44.6959 80.4345 44.4016C80.0323 44.1074 79.5486 43.9491 79.0522 43.9493H79.0082C78.5045 43.9571 78.0167 44.1298 77.6182 44.4417C77.2196 44.7536 76.9317 45.1877 76.7977 45.6791L70.2477 68.8105L62.5431 21.9987C62.4536 21.4568 62.1825 20.9626 61.7754 20.599C61.3683 20.2354 60.8499 20.0247 60.3073 20.002C59.7647 19.9794 59.231 20.1463 58.7956 20.4748C58.3603 20.8032 58.05 21.2732 57.9166 21.8058L50.1094 58.3068H41.3573C40.7326 58.3085 40.134 58.5603 39.6923 59.0072C39.2505 59.4541 39.0017 60.0597 39 60.6916V60.6916C38.9989 61.3254 39.2466 61.9338 39.6886 62.3829C40.1306 62.8321 40.7308 63.0853 41.3573 63.087H51.9659C52.4912 63.088 53.0016 62.9108 53.4156 62.5838C53.8296 62.2568 54.1233 61.7988 54.2498 61.2831L59.7605 34.1261L67.3184 80.018C67.405 80.5527 67.6703 81.0411 68.0699 81.4018C68.4696 81.7625 68.9794 81.9737 69.5143 82H69.6463C70.1587 81.9992 70.657 81.8301 71.0662 81.5182C71.4754 81.2062 71.7735 80.7683 71.9155 80.2702L79.2345 54.3958L81.5394 61.4463C81.6972 61.9216 81.998 62.3352 82.3996 62.629C82.8012 62.9228 83.2837 63.0822 83.7793 63.0849H91.3078C91.7578 64.2912 92.5215 65.3521 93.5182 66.1555C94.5149 66.9589 95.7077 67.475 96.9704 67.6492C98.2332 67.8234 99.519 67.6493 100.692 67.1451C101.865 66.641 102.881 65.8257 103.634 64.7853C104.387 63.7449 104.848 62.5182 104.968 61.2346C105.089 59.9511 104.864 58.6584 104.318 57.4934C103.773 56.3283 102.926 55.334 101.868 54.6156C100.809 53.8973 99.5788 53.4815 98.3062 53.4122L98.3146 53.4037Z" fill="white"/>
<defs>
<filter id="filter0_f_193_17" x="0" y="0" width="149" height="149" filterUnits="userSpaceOnUse" color-interpolation-filters="sRGB">
<feFlood flood-opacity="0" result="BackgroundImageFix"/>
<feBlend mode="normal" in="SourceGraphic" in2="BackgroundImageFix" result="shape"/>
<feGaussianBlur stdDeviation="20" result="effect1_foregroundBlur_193_17"/>
</filter>
<linearGradient id="paint0_linear_193_17" x1="40" y1="43.45" x2="109" y2="109" gradientUnits="userSpaceOnUse">
<stop stop-color="#FFAC0A" stop-opacity="0.64"/>
<stop offset="0.0001" stop-color="#DB1A3D" stop-opacity="0.34"/>
<stop offset="1" stop-color="#FF8A00" stop-opacity="0.84"/>
</linearGradient>
<linearGradient id="paint1_linear_193_17" x1="22" y1="7" x2="122" y2="102" gradientUnits="userSpaceOnUse">
<stop stop-color="#DC212D" stop-opacity="0.32"/>
<stop offset="0.310644" stop-color="#F2893C" stop-opacity="0.64"/>
<stop offset="0.6125" stop-color="#E86C13" stop-opacity="0.47"/>
<stop offset="0.794792" stop-color="#E1551F" stop-opacity="0.582128"/>
<stop offset="1" stop-color="#D83232" stop-opacity="0.64"/>
</linearGradient>
</defs>
</svg>
