<svg width="149" height="149" viewBox="0 0 149 149" fill="none" xmlns="http://www.w3.org/2000/svg">
<g filter="url(#filter0_f_187_38)">
<rect x="40" y="40" width="69" height="69" rx="20" fill="url(#paint0_linear_187_38)"/>
</g>
<rect x="22" y="2" width="100" height="100" rx="20" fill="url(#paint1_linear_187_38)"/>
<path d="M91.3054 36.3705C91.0329 36.201 90.8084 35.9643 90.6534 35.6831C90.4983 35.4019 90.4179 35.0856 90.4197 34.7644C90.0002 30.1824 87.8855 25.9226 84.4905 22.821C81.0955 19.7195 76.6653 18 72.0693 18C67.4732 18 63.043 19.7195 59.6481 22.821C56.2531 25.9226 54.1383 30.1824 53.7188 34.7644C53.7208 35.0854 53.6407 35.4016 53.486 35.6828C53.3313 35.9639 53.1072 36.2007 52.835 36.3705C49.9626 38.3963 47.7268 41.2001 46.3898 44.453C45.0528 47.706 44.6701 51.2732 45.2866 54.7362C45.9031 58.1991 47.4932 61.4143 49.8704 64.0046C52.2476 66.5948 55.3133 68.4526 58.708 69.3602C59.7302 69.7661 60.857 69.8261 61.9165 69.5311C62.9822 69.0014 64.0555 64.3691 63.5207 63.2965C62.7135 62.5748 61.7282 62.0825 60.6668 61.8707C58.3639 61.2391 56.332 59.8675 54.8837 57.9669C53.4354 56.0662 52.651 53.7418 52.6512 51.3513C52.6422 48.6357 53.662 46.0177 55.5051 44.0253C56.266 43.1669 57.1685 42.4458 58.1732 41.8932C59.1532 41.3422 59.9682 40.5389 60.534 39.5666C61.0997 38.5943 61.3957 37.4883 61.3911 36.363C61.3777 35.2141 61.5572 34.0711 61.9221 32.9818C62.6408 30.8068 64.026 28.914 65.8809 27.5724C67.7357 26.2307 69.9658 25.5086 72.2541 25.5086C74.5424 25.5086 76.7725 26.2307 78.6273 27.5724C80.4821 28.914 81.8674 30.8068 82.5861 32.9818C82.9516 34.071 83.1317 35.214 83.119 36.363C83.0783 37.4885 83.3579 38.6024 83.9253 39.5749C84.4927 40.5473 85.3245 41.3383 86.3237 41.8557C87.3619 42.348 88.2729 43.0731 88.9862 43.9746C90.8369 45.9622 91.858 48.5834 91.8401 51.3006C91.8486 52.7314 91.5734 54.1497 91.0305 55.4733C90.4875 56.797 89.6877 57.9996 88.6772 59.0115C87.6668 60.0235 86.4658 60.8246 85.1439 61.3686C83.822 61.9126 82.4054 62.1886 80.9762 62.1807C77.6767 62.1826 74.5122 63.4929 72.1753 65.8248C69.8383 68.1567 68.519 71.3204 68.5061 74.6236V81.7355C68.4148 82.8359 68.5985 83.9418 69.0409 84.9533C70.0523 85.3938 71.1436 85.6211 72.2466 85.6211C73.3496 85.6211 74.4408 85.3938 75.4523 84.9533C75.9194 83.9492 76.1086 82.8379 76.0002 81.7355V74.4583C76.0002 73.1784 76.508 71.951 77.412 71.046C78.316 70.141 79.542 69.6325 80.8205 69.6325C84.7189 69.6412 88.5183 68.4037 91.6654 66.1003C94.8125 63.7969 97.143 60.5479 98.3176 56.8264C99.4921 53.1049 99.4493 49.1051 98.1955 45.4096C96.9417 41.7141 94.5423 38.5158 91.3466 36.2804L91.3054 36.3743V36.3705Z" fill="white"/>
<defs>
<filter id="filter0_f_187_38" x="0" y="0" width="149" height="149" filterUnits="userSpaceOnUse" color-interpolation-filters="sRGB">
<feFlood flood-opacity="0" result="BackgroundImageFix"/>
<feBlend mode="normal" in="SourceGraphic" in2="BackgroundImageFix" result="shape"/>
<feGaussianBlur stdDeviation="20" result="effect1_foregroundBlur_187_38"/>
</filter>
<linearGradient id="paint0_linear_187_38" x1="40" y1="43.45" x2="109" y2="109" gradientUnits="userSpaceOnUse">
<stop stop-color="#FFAC0A" stop-opacity="0.64"/>
<stop offset="0.0001" stop-color="#DB1A3D" stop-opacity="0.34"/>
<stop offset="1" stop-color="#FF8A00" stop-opacity="0.84"/>
</linearGradient>
<linearGradient id="paint1_linear_187_38" x1="22" y1="7" x2="122" y2="102" gradientUnits="userSpaceOnUse">
<stop stop-color="#DC212D" stop-opacity="0.32"/>
<stop offset="0.310644" stop-color="#F2893C" stop-opacity="0.64"/>
<stop offset="0.6125" stop-color="#E86C13" stop-opacity="0.47"/>
<stop offset="0.794792" stop-color="#E1551F" stop-opacity="0.582128"/>
<stop offset="1" stop-color="#D83232" stop-opacity="0.64"/>
</linearGradient>
</defs>
</svg>
