<svg width="149" height="149" viewBox="0 0 149 149" fill="none" xmlns="http://www.w3.org/2000/svg">
<g filter="url(#filter0_f_193_14)">
<rect x="40" y="40" width="69" height="69" rx="20" fill="url(#paint0_linear_193_14)"/>
</g>
<rect x="22" y="2" width="100" height="100" rx="20" fill="url(#paint1_linear_193_14)"/>
<path d="M85.2955 46.5197C85.2955 47.3962 85.0356 48.2531 84.5486 48.9819C84.0617 49.7107 83.3695 50.2787 82.5597 50.6142C81.7499 50.9496 80.8588 51.0374 79.9991 50.8664C79.1394 50.6954 78.3497 50.2733 77.7299 49.6535C77.1101 49.0337 76.688 48.244 76.517 47.3843C76.346 46.5246 76.4338 45.6335 76.7692 44.8237C77.1047 44.0139 77.6727 43.3218 78.4015 42.8348C79.1303 42.3478 79.9872 42.0879 80.8637 42.0879C82.0391 42.0879 83.1663 42.5548 83.9975 43.3859C84.8286 44.2171 85.2955 45.3443 85.2955 46.5197Z" fill="white"/>
<path d="M67.5682 46.5197C67.5682 47.3962 67.3083 48.2531 66.8213 48.9819C66.3344 49.7107 65.6422 50.2787 64.8324 50.6142C64.0226 50.9496 63.1315 51.0374 62.2718 50.8664C61.4121 50.6954 60.6224 50.2733 60.0026 49.6535C59.3828 49.0337 58.9608 48.244 58.7897 47.3843C58.6187 46.5246 58.7065 45.6335 59.0419 44.8237C59.3774 44.0139 59.9454 43.3218 60.6742 42.8348C61.403 42.3478 62.2599 42.0879 63.1364 42.0879C64.3118 42.0879 65.4391 42.5548 66.2702 43.3859C67.1013 44.2171 67.5682 45.3443 67.5682 46.5197Z" fill="white"/>
<path d="M110.787 54.1772C111.071 52.6301 111.071 51.0443 110.787 49.4972C110.342 46.8803 109.173 44.4403 107.412 42.4539C105.651 40.4675 103.369 39.014 100.825 38.2581C98.9568 34.3317 96.3159 30.8226 93.06 27.9408C89.3519 24.6794 84.9367 22.3241 80.1627 21.0607C75.3887 19.7974 70.3864 19.6605 65.5504 20.6609C60.7145 21.6614 56.1771 23.7717 52.2962 26.8255C48.4153 29.8794 45.297 33.7931 43.1873 38.2581C40.6376 39.0069 38.3501 40.458 36.5862 42.4454C34.8223 44.4329 33.6533 46.8767 33.2127 49.4972C32.9291 51.0443 32.9291 52.6301 33.2127 54.1772C33.6579 56.7941 34.8271 59.2341 36.5879 61.2205C38.3488 63.2069 40.6308 64.6604 43.1755 65.4163C45.0188 69.318 47.6364 72.8041 50.8691 75.6627C56.6835 80.8683 64.2135 83.7466 72.0177 83.7466C79.8219 83.7466 87.352 80.8683 93.1664 75.6627C96.3911 72.7968 99.0074 69.3125 100.86 65.4163C103.4 64.6578 105.676 63.2027 107.431 61.2162C109.185 59.2296 110.348 56.7911 110.787 54.1772ZM96.8182 58.9281C96.4739 58.9102 96.1307 58.8747 95.79 58.8218C95.0947 61.1546 94.0679 63.3755 92.7409 65.4163C90.4918 68.8674 87.417 71.7028 83.7953 73.6654C80.1736 75.6281 76.1193 76.656 72 76.656C67.8807 76.656 63.8264 75.6281 60.2047 73.6654C56.583 71.7028 53.5082 68.8674 51.2591 65.4163C49.9321 63.3755 48.9053 61.1546 48.21 58.8218C47.8693 58.8747 47.5261 58.9102 47.1818 58.9281C45.3012 58.9281 43.4976 58.181 42.1678 56.8512C40.838 55.5214 40.0909 53.7178 40.0909 51.8372C40.0909 49.9566 40.838 48.153 42.1678 46.8232C43.4976 45.4934 45.3012 44.7463 47.1818 44.7463C47.5261 44.7642 47.8693 44.7997 48.21 44.8527C48.9053 42.5198 49.9321 40.2989 51.2591 38.2581C53.5082 34.807 56.583 31.9716 60.2047 30.009C63.8264 28.0463 67.8807 27.0184 72 27.0184C76.1193 27.0184 80.1736 28.0463 83.7953 30.009C87.417 31.9716 90.4918 34.807 92.7409 38.2581C94.0679 40.2989 95.0947 42.5198 95.79 44.8527C96.1307 44.7997 96.4739 44.7642 96.8182 44.7463C98.6988 44.7463 100.502 45.4934 101.832 46.8232C103.162 48.153 103.909 49.9566 103.909 51.8372C103.909 53.7178 103.162 55.5214 101.832 56.8512C100.502 58.181 98.6988 58.9281 96.8182 58.9281ZM56.0455 58.9281C57.3583 62.0775 59.5739 64.7679 62.413 66.6603C65.2522 68.5528 68.5879 69.5626 72 69.5626C75.4121 69.5626 78.7478 68.5528 81.587 66.6603C84.4261 64.7679 86.6417 62.0775 87.9545 58.9281H56.0455Z" fill="white"/>
<defs>
<filter id="filter0_f_193_14" x="0" y="0" width="149" height="149" filterUnits="userSpaceOnUse" color-interpolation-filters="sRGB">
<feFlood flood-opacity="0" result="BackgroundImageFix"/>
<feBlend mode="normal" in="SourceGraphic" in2="BackgroundImageFix" result="shape"/>
<feGaussianBlur stdDeviation="20" result="effect1_foregroundBlur_193_14"/>
</filter>
<linearGradient id="paint0_linear_193_14" x1="40" y1="43.45" x2="109" y2="109" gradientUnits="userSpaceOnUse">
<stop stop-color="#FFAC0A" stop-opacity="0.64"/>
<stop offset="0.0001" stop-color="#DB1A3D" stop-opacity="0.34"/>
<stop offset="1" stop-color="#FF8A00" stop-opacity="0.84"/>
</linearGradient>
<linearGradient id="paint1_linear_193_14" x1="22" y1="7" x2="122" y2="102" gradientUnits="userSpaceOnUse">
<stop stop-color="#DC212D" stop-opacity="0.32"/>
<stop offset="0.310644" stop-color="#F2893C" stop-opacity="0.64"/>
<stop offset="0.6125" stop-color="#E86C13" stop-opacity="0.47"/>
<stop offset="0.794792" stop-color="#E1551F" stop-opacity="0.582128"/>
<stop offset="1" stop-color="#D83232" stop-opacity="0.64"/>
</linearGradient>
</defs>
</svg>
