<svg width="123" height="38" viewBox="0 0 123 38" fill="none" xmlns="http://www.w3.org/2000/svg">
<path d="M122.581 0.266403V28.9504H120.945V6.65338L120.834 6.63988C119.899 9.89638 118.964 13.1512 118.031 16.4043L117.91 16.4212C116.965 13.1771 116.019 9.93239 115.072 6.68714L114.964 6.70909V28.9622H113.323V0.300162H114.718C115.778 4.58178 116.84 8.87239 117.903 13.172H118.028C118.515 11.1533 119.004 9.13458 119.493 7.11586C120 5.03301 120.521 2.95353 120.987 0.862233C121.095 0.377808 121.271 0.20227 121.745 0.263034C122.024 0.280464 122.303 0.281584 122.581 0.266403V0.266403Z" fill="#2C2C2A"/>
<path d="M102.961 28.9556V28.2805C102.961 20.0908 102.961 11.9012 102.961 3.71154C102.95 3.38864 102.963 3.06538 103 2.74438C103.256 0.983915 103.996 0.330697 105.778 0.271621C106.116 0.261494 106.467 0.271623 106.811 0.263184H109.764V28.9573H108.115V14.4161H104.738V28.9556H102.961ZM108.052 1.07506C107.436 1.07506 106.897 1.04974 106.364 1.07506C105.422 1.12907 104.867 1.67594 104.77 2.61103C104.74 2.91052 104.725 3.21135 104.725 3.51237C104.725 6.57083 104.725 9.62928 104.725 12.6877C104.725 12.892 104.748 13.0962 104.762 13.2937H108.054L108.052 1.07506Z" fill="#2E2D2B"/>
<path d="M79.5455 28.9672H77.9924V28.1739C77.9924 24.4875 78.0177 20.8012 77.9721 17.1165C77.9541 16.2615 77.8091 15.4139 77.5416 14.6016C76.6233 11.7743 75.6307 8.97245 74.6718 6.16211C74.6238 5.97781 74.5297 5.80876 74.3983 5.67093V28.9554H72.7861V0.323692C74.0877 0.154903 74.0894 0.154899 74.449 1.3533C75.5575 5.06666 76.6666 8.77721 77.7763 12.4849C77.8067 12.5828 77.8573 12.6757 77.9654 12.9272V0.323692H79.5505L79.5455 28.9672Z" fill="#2D2C2B"/>
<path d="M62.4126 14.3921H59.0515V28.9619H57.3076V28.3054C57.3076 20.1337 57.3076 11.9638 57.3076 3.7955C57.3076 3.53726 57.3076 3.27731 57.3262 3.01907C57.4173 1.21471 57.9407 0.510867 59.6997 0.333639C61.1431 0.18848 62.6118 0.304947 64.0889 0.304947V28.9468H62.4007L62.4126 14.3921ZM62.3737 1.07125C61.8673 1.07125 61.4233 1.07125 60.976 1.07125C59.6913 1.08306 59.0515 1.67382 59.0447 2.96168C59.0278 6.36785 59.0447 9.774 59.0447 13.1802C59.0447 13.2156 59.0802 13.2511 59.1038 13.2933H62.3704L62.3737 1.07125Z" fill="#2B2A28"/>
<path d="M42.2585 19.709H43.8859C43.896 19.8778 43.9163 20.0651 43.9163 20.2491C43.9163 22.2965 43.9163 24.3456 43.9264 26.3931C43.9237 26.7787 43.9806 27.1625 44.0952 27.5307C44.3434 28.2632 44.9528 28.5434 45.9302 28.4759C46.6477 28.4219 47.0073 28.0877 47.1727 27.318C47.2145 27.1732 47.2411 27.0244 47.2521 26.8741C47.2352 24.484 47.2352 22.0974 47.1389 19.7056C47.0782 18.2473 46.4451 16.9375 45.7783 15.6547C44.7806 13.7339 43.788 11.8097 42.846 9.85848C42.3146 8.7 42.0736 7.42951 42.1437 6.15694C42.1876 4.95178 42.1437 3.74157 42.218 2.53979C42.3193 0.93123 42.9473 0.239189 44.5392 0.0552094C45.3513 -0.0263908 46.1707 0.00199704 46.9752 0.139604C48.2447 0.345526 48.8811 0.983549 48.9267 2.24947C49.0043 4.41841 48.9469 6.59241 48.9469 8.79511H47.2588C47.2588 7.80938 47.2706 6.82703 47.2588 5.84299C47.2402 4.55176 47.2588 3.25714 47.1541 1.97266C47.0849 1.12872 46.6696 0.833335 45.8374 0.770883C44.914 0.70168 44.3434 1.01056 44.075 1.73804C44.0024 1.89449 43.9578 2.06244 43.9433 2.23428C43.9602 5.23873 43.5044 8.27017 45.2938 11.0619C46.4924 12.9186 47.4242 14.9778 48.3004 17.0202C48.7292 18.016 48.8896 19.179 48.9385 20.2761C49.033 22.3624 48.9824 24.457 48.9503 26.5466C48.925 28.221 48.3629 28.9249 46.7203 29.1443C45.8065 29.2441 44.8832 29.2163 43.9771 29.0616C42.9794 28.9131 42.3075 28.1822 42.2737 27.2049C42.2011 24.722 42.2585 22.2273 42.2585 19.709Z" fill="#2E2D2B"/>
<path d="M95.5156 0.288086H100.411V1.30082H97.278V13.3203H100.163V14.3803H97.2814V27.9138H100.58V28.962H95.5156V0.288086Z" fill="#302F2D"/>
<path d="M93.5826 1.29908H90.9795V28.9484H89.2323V1.33621H86.6494V0.303223H93.5826V1.29908Z" fill="#2B2A29"/>
<path d="M51.2866 35.4738H48.1028C48.0758 36.2401 48.3881 36.7481 49.0093 36.9389C49.6305 37.1296 50.0627 36.8781 50.4442 36.3734C50.5843 36.1861 50.9287 36.154 51.2765 36.0105C51.0013 37.2663 50.1268 37.7541 48.854 37.5397C47.7888 37.3591 47.1236 36.2603 47.2874 34.9505C47.4511 33.6407 48.3323 32.8879 49.6086 33.0027C50.7076 33.1006 51.3457 34.007 51.2866 35.4738ZM50.4949 34.8307C50.4594 34.0576 50.0593 33.6103 49.3959 33.5698C48.7324 33.5293 48.2598 33.9783 48.0994 34.8307H50.4949Z" fill="#333231"/>
<path d="M100.504 37.4845L99.7666 37.5216V31.457H100.457V33.3559C100.989 33.2327 101.482 33.0403 101.976 33.0183C102.689 32.9879 103.187 33.4015 103.231 34.1188C103.3 35.2244 103.249 36.3384 103.249 37.4946L102.566 37.5267C102.566 36.573 102.566 35.6548 102.566 34.7366C102.566 33.9737 102.312 33.6631 101.701 33.6412C101.002 33.6175 100.533 34.0007 100.509 34.6944C100.481 35.6008 100.504 36.5274 100.504 37.4845Z" fill="#323130"/>
<path d="M110.976 35.3101C110.976 36.7414 110.22 37.5701 108.925 37.5752C107.63 37.5803 106.825 36.711 106.837 35.2628C106.849 33.8146 107.654 32.9774 108.969 32.9909C110.225 33.0095 110.983 33.8821 110.976 35.3101ZM110.217 35.3101C110.217 35.1598 110.217 35.0079 110.195 34.8594C110.126 34.1336 109.636 33.6255 108.978 33.5901C108.663 33.5674 108.351 33.6668 108.108 33.8676C107.864 34.0684 107.707 34.3553 107.669 34.6686C107.601 35.1318 107.621 35.6037 107.728 36.0595C107.789 36.3465 107.953 36.6011 108.189 36.7748C108.426 36.9486 108.718 37.0292 109.01 37.0013C109.299 36.9677 109.569 36.8407 109.78 36.6397C109.99 36.4387 110.129 36.1746 110.176 35.8873C110.201 35.6965 110.215 35.5042 110.217 35.3117V35.3101Z" fill="#323130"/>
<path d="M118.355 35.2628C118.355 36.7498 117.622 37.5769 116.306 37.5769C115.023 37.5769 114.248 36.7329 114.233 35.3201C114.217 33.9074 115.019 33.001 116.312 33.001C117.606 33.001 118.353 33.8297 118.355 35.2628ZM114.947 35.3134C114.999 35.5699 115.033 35.8198 115.105 36.0679C115.176 36.3452 115.341 36.5896 115.571 36.7598C115.801 36.93 116.083 37.0155 116.369 37.002C116.655 36.9885 116.928 36.8768 117.141 36.6857C117.354 36.4947 117.495 36.2359 117.54 35.9531C117.613 35.51 117.613 35.0577 117.54 34.6146C117.488 34.3401 117.345 34.0911 117.134 33.9074C116.924 33.7237 116.657 33.616 116.378 33.6016C116.099 33.5872 115.823 33.6669 115.595 33.828C115.367 33.989 115.199 34.222 115.119 34.4897C115.047 34.7599 114.99 35.0337 114.947 35.31V35.3134Z" fill="#323130"/>
<path d="M65.8864 37.5269L65.1351 37.4881C65.1351 36.4753 65.1773 35.4862 65.1081 34.5039C65.0879 34.2136 64.7705 33.7376 64.5527 33.7106C64.1217 33.6786 63.6931 33.798 63.3406 34.0482C63.1279 34.2051 63.0722 34.6642 63.057 34.9934C63.0199 35.8086 63.0452 36.6256 63.0452 37.4813H62.3564V33.0067L63.1752 33.427C63.4058 33.2717 63.654 33.1443 63.9146 33.0472C65.0305 32.7097 65.8779 33.3747 65.8864 34.5478C65.8914 35.5335 65.8864 36.5175 65.8864 37.5269Z" fill="#363534"/>
<path d="M89.0415 34.1594C88.6853 34.3434 88.4574 34.3805 88.2329 33.9805C87.9712 33.5113 87.1052 33.4286 86.6764 33.7594C86.305 34.0447 86.3776 34.4582 86.8655 34.6405C87.3247 34.8093 87.8058 34.9274 88.2785 35.0624C88.8406 35.2312 89.261 35.5182 89.266 36.1646C89.2711 36.8111 88.9031 37.2685 88.2903 37.4474C87.1576 37.7766 85.8678 37.5538 85.6416 36.2659C85.9623 36.114 86.2223 35.903 86.4739 36.4499C86.749 37.0474 87.7011 37.2179 88.2126 36.801C88.2946 36.7244 88.3596 36.6315 88.4035 36.5283C88.4474 36.4251 88.4692 36.3139 88.4676 36.2018C88.4557 36.0465 88.2363 35.8456 88.0641 35.7798C87.5847 35.6009 87.0799 35.4929 86.5903 35.3342C86.0738 35.1654 85.7463 34.8278 85.7581 34.2506C85.7699 33.6733 86.0738 33.3037 86.619 33.1112C87.5458 32.7872 89.0584 33.0961 89.0415 34.1594Z" fill="#323130"/>
<path d="M74.0146 36.2268C74.3759 36.058 74.6089 36.031 74.8131 36.4429C75.1086 37.0387 76.0202 37.2193 76.5452 36.8108C76.6305 36.7374 76.6999 36.6472 76.749 36.5459C76.7981 36.4446 76.8258 36.3342 76.8305 36.2217C76.8305 36.0698 76.6026 35.8605 76.4304 35.7947C75.9543 35.6124 75.4513 35.4943 74.9617 35.344C74.408 35.1752 74.0788 34.8107 74.0991 34.2148C74.1193 33.619 74.4451 33.2831 75.0005 33.1008C76.1079 32.7379 77.1343 33.1548 77.3994 34.1271C77.0921 34.3212 76.8524 34.4309 76.5924 33.992C76.3325 33.5532 75.5357 33.4148 75.0934 33.7169C74.9549 33.8114 74.8013 34.0393 74.825 34.176C74.8494 34.274 74.895 34.3655 74.9585 34.4439C75.0221 34.5224 75.1022 34.5859 75.193 34.6301C75.6547 34.7996 76.126 34.9422 76.6043 35.0571C77.2052 35.2158 77.6323 35.5635 77.6171 36.2082C77.602 36.853 77.2103 37.2665 76.6043 37.4741C75.3652 37.8978 74.2324 37.3729 74.0146 36.2268Z" fill="#30302E"/>
<path d="M54.958 33.1247H55.5269L55.5961 33.599C55.694 33.5248 55.7801 33.4674 55.8595 33.3999C56.4486 32.9036 57.1138 32.8665 57.784 33.1602C58.4018 33.4302 58.5132 34.0041 58.5149 34.6168C58.5149 35.5604 58.5149 36.5022 58.5149 37.4862H57.7451C57.7451 36.5393 57.757 35.5806 57.7451 34.6168C57.7299 33.7729 57.1087 33.383 56.3355 33.7172C55.8291 33.9349 55.6772 34.3569 55.6772 34.8683C55.6772 35.7241 55.6772 36.5798 55.6772 37.4812L54.9597 37.5234L54.958 33.1247Z" fill="#323130"/>
<path d="M96.359 34.5588C96.0214 34.4002 95.7006 34.3546 95.5808 34.1774C95.2972 33.7571 94.968 33.5275 94.4615 33.5967C94.2007 33.62 93.9558 33.7321 93.7677 33.9143C93.5796 34.0965 93.4599 34.3377 93.4284 34.5977C93.355 35.0652 93.355 35.5412 93.4284 36.0087C93.4562 36.2704 93.5767 36.5135 93.768 36.6943C93.9592 36.875 94.2088 36.9815 94.4717 36.9945C95.2094 37.0637 95.547 36.586 95.7462 35.9277L96.3894 35.9969C96.3719 36.3389 96.249 36.6672 96.0374 36.9365C95.8258 37.2058 95.5359 37.4029 95.2077 37.5008C94.8267 37.6266 94.4168 37.6351 94.0309 37.5252C93.6451 37.4154 93.3011 37.1923 93.0435 36.8848C92.0796 35.6813 92.6012 33.509 93.9669 33.087C95.076 32.7477 96.1902 33.2625 96.359 34.5588Z" fill="#323130"/>
<path d="M43.3885 32.9842C43.6721 33.1918 44.3491 32.861 44.0874 33.6307L43.4003 33.6746C43.4003 34.6096 43.3649 35.5549 43.4307 36.4933C43.4425 36.6807 43.8376 36.8444 44.1634 37.1043L44.1802 37.4791C42.9395 37.6478 42.639 37.4115 42.6305 36.2452C42.6305 35.4013 42.6305 34.5691 42.6305 33.6847L41.9316 33.6003L42.6305 32.7816C42.6305 32.4289 42.4617 31.7402 43.3902 31.6221L43.3885 32.9842Z" fill="#30302E"/>
<path d="M84.9744 26.8237V29.0973H82.8389V26.8237H84.9744Z" fill="#2C2C2A"/>
<path d="M54.0222 26.8237V29.1024H51.9609V26.8237H54.0222Z" fill="#2B2A28"/>
<path d="M69.4547 29.1007H67.4053V26.8237H69.4547V29.1007Z" fill="#2B2A28"/>
<path d="M122.581 37.4812H121.968V31.4604H122.581V37.4812Z" fill="#2C2C2A"/>
<path d="M69.7891 33.1343H70.3799V37.4722L69.7891 37.5278V33.1343Z" fill="#2C2C2A"/>
<path d="M70.395 31.4028V32.1961H69.7568V31.4417L70.395 31.4028Z" fill="#2B2A28"/>
<path d="M35.6822 36.8604H0.751953C0.773923 36.4101 0.777584 35.9561 0.825185 35.5058C0.991568 33.676 1.4412 31.8832 2.15801 30.1914C2.74235 28.8279 3.49358 27.542 4.39452 26.3634C4.49778 26.228 4.59005 26.1701 4.78045 26.2038C6.09863 26.4374 7.41681 26.6995 8.74158 26.8628C10.3645 27.051 12.0004 27.1031 13.632 27.0187C16.3204 26.895 18.9523 26.4 21.585 25.8933C24.3906 25.3537 27.2093 24.9532 30.08 25.093C30.3729 25.1069 30.6578 25.123 30.9456 25.1545C31.0253 25.1705 31.0974 25.2124 31.1506 25.2739C33.2875 27.6455 34.7009 30.3862 35.3461 33.52C35.5662 34.5705 35.6832 35.64 35.6954 36.7132C35.6939 36.7557 35.6866 36.8011 35.6822 36.8604Z" fill="#FDEC01"/>
<path d="M30.0015 24.1326C29.3819 24.1326 28.8159 24.1326 28.2498 24.1326C26.3985 24.1429 24.5735 24.405 22.7574 24.7184C20.8255 25.0545 18.901 25.4389 16.964 25.7435C15.0278 26.0491 13.0664 26.1653 11.1076 26.0906C9.1533 26.0171 7.20939 25.7701 5.29883 25.3525C10.5481 19.0247 21.932 16.8618 30.0015 24.1326Z" fill="#FDEC02"/>
<path d="M26.5362 20.9373L25.3506 20.4167C25.3769 20.3676 25.4062 20.3193 25.4304 20.2702C26.6509 17.7084 27.8715 15.1469 29.092 12.5857C30.9546 8.67809 32.8178 4.76979 34.6818 0.860757C34.718 0.76751 34.7466 0.67153 34.7675 0.57373L36.2819 0.57373V4.16742C36.2469 4.21007 36.2141 4.25456 36.1838 4.30069C35.4212 5.61867 34.6594 6.93665 33.8982 8.25462C31.7696 11.9406 29.6408 15.626 27.5117 19.311C27.1946 19.8572 26.8614 20.3954 26.5362 20.9373Z" fill="#A0D8F6"/>
<path d="M11.0808 20.4166L9.91492 20.9394C9.86719 20.8825 9.82316 20.8226 9.78311 20.7601C7.01054 15.9626 4.23821 11.1637 1.46613 6.36332C1.05164 5.64576 0.623965 4.93551 0.202148 4.22234V0.57373H1.66166C1.6821 0.644863 1.70655 0.714779 1.7349 0.783143C4.25555 6.07361 6.7762 11.3629 9.29685 16.6509C9.89442 17.9059 10.4891 19.1612 11.0808 20.4166Z" fill="#A0D8F6"/>
<path d="M24.6627 20.1003L23.4551 19.7152C23.6992 18.9893 23.9433 18.264 24.1874 17.5391C25.7331 12.9056 27.281 8.27147 28.831 3.63657C29.1665 2.61953 29.4967 1.59883 29.8307 0.57959H32.9379C32.2944 2.09722 31.651 3.61607 31.0075 5.13614C29.2748 9.23359 27.5417 13.3313 25.808 17.4292C25.4316 18.3211 25.0449 19.21 24.6627 20.1003Z" fill="#A0D8F6"/>
<path d="M12.9738 19.7123L11.8021 20.0959C11.7665 20.0549 11.7353 20.0102 11.7091 19.9627C11.0285 18.3552 10.3492 16.7475 9.67103 15.1396C8.22104 11.7007 6.77006 8.26097 5.31812 4.82055C4.72249 3.41032 4.1298 1.9991 3.54004 0.58691L6.65094 0.57373C6.66411 0.673729 6.68368 0.772781 6.70953 0.870276C8.56816 6.43264 10.4263 11.9962 12.284 17.561C12.5227 18.2735 12.7446 18.9947 12.9738 19.7123Z" fill="#A0D8F6"/>
<path d="M25.2949 0.57373L28.1297 0.591304C28.1121 0.673311 28.0997 0.756783 28.077 0.836594C26.4312 6.6113 24.785 12.385 23.1382 18.1578C23.0086 18.6132 22.9009 19.0745 22.783 19.5336L21.5381 19.2407C21.5483 19.1477 21.552 19.0533 21.5703 18.9625C22.0873 16.432 22.6053 13.9019 23.1243 11.3724C23.7551 8.28586 24.3858 5.19886 25.0166 2.11137C25.1199 1.59883 25.2026 1.08628 25.2949 0.57373Z" fill="#A0D8F6"/>
<path d="M14.9378 19.2507L13.698 19.5312C13.0697 17.3174 12.4411 15.104 11.8123 12.8907C10.6445 8.78743 9.47591 4.68388 8.30664 0.580078H11.1371C11.6053 2.89923 12.0737 5.2179 12.5424 7.53608C13.3387 11.4412 14.1371 15.3461 14.9378 19.2507Z" fill="#A0D8F6"/>
<path d="M16.893 19.0042L15.6085 19.1441C15.6004 19.0049 15.6034 18.8644 15.5821 18.7274C15.2936 16.9057 15.0036 15.0844 14.7121 13.2637C14.4207 11.4429 14.1351 9.62142 13.8553 7.79919C13.5814 6.06971 13.3058 4.34071 13.0285 2.61221C12.9187 1.93198 12.7986 1.25395 12.6836 0.575195L15.3932 0.578856C15.3932 0.662328 15.3932 0.746533 15.3932 0.830005C15.5016 2.0938 15.6129 3.35613 15.7161 4.62066C15.7989 5.63331 15.8736 6.64669 15.9571 7.66007C16.0603 8.91435 16.1716 10.1679 16.2749 11.4222C16.3584 12.4473 16.4309 13.4672 16.5151 14.4894C16.6391 15.9948 16.7651 17.4998 16.893 19.0042Z" fill="#A0D8F6"/>
<path d="M21.0335 0.57373L23.7497 0.581053C23.612 1.44653 23.4746 2.312 23.3374 3.17747C23.1084 4.63164 22.8792 6.08606 22.6497 7.54072C22.3758 9.27118 22.1005 11.0004 21.8237 12.7284C21.5893 14.2009 21.3513 15.6727 21.1199 17.1451C21.0152 17.8041 20.9222 18.4719 20.827 19.1345L19.5908 18.9793C19.6099 18.6352 19.6238 18.2903 19.6501 17.9462C19.7253 16.9606 19.8037 15.9751 19.8852 14.9895C19.9921 13.6788 20.1049 12.3689 20.2104 11.0583C20.2726 10.2953 20.329 9.53306 20.3912 8.77083C20.4972 7.47872 20.6051 6.18686 20.7149 4.89524C20.7816 4.10518 20.8563 3.31586 20.9156 2.52581C20.9617 1.87853 20.9939 1.22686 21.0335 0.57373Z" fill="#A0D8F6"/>
<path d="M18.863 18.9693L17.6137 18.9605C17.5646 17.8512 17.5126 16.7412 17.4672 15.6319C17.4086 14.1675 17.3527 12.7031 17.2995 11.2386C17.2424 9.71758 17.1857 8.19678 17.1296 6.67622C17.0842 5.36996 17.049 4.06296 17 2.7567C16.9722 2.02961 16.9268 1.30326 16.8857 0.576172L19.5463 0.58203C19.4877 2.02741 19.4293 3.47304 19.3712 4.91891C19.3127 6.42141 19.256 7.92342 19.2013 9.42494C19.1545 10.7429 19.1164 12.0609 19.0725 13.373C19.0541 13.9236 19.0314 14.4713 19.0102 15.0249C18.9619 16.3395 18.9128 17.6543 18.863 18.9693Z" fill="#A0D8F6"/>
<path d="M36.2617 7.27832C36.2745 7.32282 36.2831 7.36842 36.2873 7.41451C36.2873 8.83939 36.2851 10.2643 36.2807 11.6892C36.2416 11.728 36.2044 11.7688 36.1694 11.8114C35.3146 12.9342 34.4602 14.0552 33.6063 15.1745C31.8614 17.4717 30.117 19.7686 28.3731 22.0653L27.2666 21.3331C27.2933 21.2653 27.3244 21.1992 27.3596 21.1354C27.9064 20.2763 28.4544 19.4184 29.0037 18.5617C30.9394 15.5416 32.8747 12.5231 34.8095 9.50644C35.2877 8.75812 35.7776 8.02005 36.2617 7.27832Z" fill="#A0D8F6"/>
<path d="M0.203125 11.7407C0.203125 10.3446 0.203125 8.94827 0.203125 7.55169C0.207892 7.47781 0.218173 7.40438 0.233882 7.33203C0.29613 7.42209 0.367165 7.50776 0.427215 7.60295C2.76478 11.2464 5.10064 14.8909 7.4348 18.5363C8.0331 19.4706 8.62555 20.4086 9.22093 21.3451L8.04921 22.1168C8.01978 22.0239 7.97972 21.9348 7.92985 21.851C5.74265 18.9686 3.55276 16.0885 1.36019 13.211C0.979385 12.7138 0.587594 12.2298 0.203125 11.7407Z" fill="#A0D8F6"/>
<path d="M3.54051 0.58691C4.13321 1.99813 4.7259 3.40934 5.31859 4.82055C6.76907 8.26048 8.22102 11.7002 9.67444 15.1396C10.3535 16.7475 11.0329 18.3552 11.7125 19.9627C11.7388 20.0102 11.7699 20.0549 11.8055 20.0959L11.0812 20.4167C10.4866 19.1602 9.89194 17.9039 9.29729 16.648C6.77713 11.3614 4.25648 6.07386 1.73534 0.785339C1.70691 0.716258 1.68246 0.645606 1.66211 0.57373L3.54051 0.58691Z" fill="#02A0E3"/>
<path d="M24.6621 20.1003C25.0444 19.21 25.431 18.3211 25.8089 17.4292C27.5431 13.3318 29.2762 9.23408 31.0084 5.13614C31.6504 3.61607 32.2934 2.09527 32.9373 0.57373H34.7681C34.7473 0.67153 34.7186 0.76751 34.6825 0.860757C32.8199 4.76979 30.9557 8.67882 29.0897 12.5878C27.8692 15.1486 26.6487 17.7102 25.4281 20.2724C25.404 20.3222 25.3747 20.3705 25.3483 20.4188L24.6621 20.1003Z" fill="#02A0E3"/>
<path d="M8.30959 0.58032C9.47837 4.68412 10.6469 8.78767 11.8152 12.891C12.445 15.1047 13.0736 17.3182 13.7009 19.5314L12.9752 19.7123C12.746 18.9947 12.5241 18.2735 12.2854 17.5588C10.4277 11.9955 8.56956 6.43313 6.71093 0.87174C6.68502 0.773765 6.66545 0.674222 6.65234 0.57373L8.30959 0.58032Z" fill="#03A0E3"/>
<path d="M22.7842 19.5336C22.9021 19.0745 23.0097 18.6132 23.1394 18.1578C24.7861 12.3845 26.4324 6.6113 28.0781 0.83806C28.1008 0.758249 28.1133 0.674777 28.1309 0.59277L29.8313 0.57959C29.4974 1.59883 29.1671 2.61953 28.8317 3.63657C27.285 8.27147 25.7371 12.9056 24.188 17.5391C23.9439 18.2649 23.6998 18.9903 23.4557 19.7152L22.7842 19.5336Z" fill="#02A0E3"/>
<path d="M20.8262 19.1375C20.9243 18.4748 21.0173 17.8107 21.1191 17.1481C21.3505 15.6756 21.5885 14.2038 21.8229 12.7314C22.1016 11.0014 22.3782 9.27118 22.6526 7.54072C22.883 6.08655 23.1122 4.63213 23.3402 3.17747C23.4774 2.312 23.6146 1.44653 23.7518 0.581053L25.2963 0.57373C25.204 1.08628 25.1212 1.59883 25.018 2.11137C24.3872 5.19935 23.7559 8.2866 23.1242 11.3731C22.6067 13.9036 22.0887 16.4337 21.5702 18.9632C21.5519 19.054 21.5482 19.1485 21.538 19.2415L20.8262 19.1375Z" fill="#03A0E3"/>
<path d="M12.6836 0.57373C12.7986 1.25249 12.9187 1.93052 13.0285 2.61074C13.3068 4.33876 13.5824 6.06775 13.8553 7.79772C14.1429 9.61849 14.4295 11.44 14.7151 13.2622C15.0007 15.0844 15.2907 16.9057 15.5851 18.726C15.6063 18.8629 15.6034 19.0035 15.6114 19.1426L14.9384 19.2495C14.1392 15.3444 13.3408 11.4393 12.543 7.53413C12.0709 5.21595 11.6025 2.89728 11.1377 0.578124L12.6836 0.57373Z" fill="#03A0E3"/>
<path d="M36.2609 7.27864C35.7768 8.02037 35.2869 8.75844 34.8087 9.50383C32.8739 12.521 30.9388 15.5399 29.0036 18.5606C28.4543 19.4182 27.9063 20.2761 27.3595 21.1343C27.3243 21.1981 27.2932 21.2641 27.2665 21.332L26.5342 20.9373C26.8593 20.3955 27.1933 19.8573 27.5096 19.3096C29.6397 15.6251 31.7686 11.9397 33.8962 8.25322C34.6578 6.93524 35.4197 5.61726 36.1818 4.29928C36.2121 4.25315 36.2449 4.20867 36.2799 4.16602C36.2799 5.14864 36.2819 6.13127 36.2858 7.1139C36.2822 7.16942 36.2739 7.22454 36.2609 7.27864V7.27864Z" fill="#02A0E3"/>
<path d="M9.22005 21.3454C8.62468 20.4089 8.03223 19.471 7.43392 18.5367C5.09977 14.8902 2.76391 11.2458 0.426341 7.60327C0.36629 7.50809 0.295255 7.42242 0.229346 7.33309C0.218362 7.11343 0.198589 6.89376 0.198589 6.66971C0.197857 5.85402 0.197857 5.04054 0.202983 4.22266C0.6248 4.93583 1.05248 5.64607 1.46697 6.36364C4.241 11.1626 7.01333 15.9624 9.78394 20.7633C9.824 20.8259 9.86803 20.8858 9.91576 20.9427L9.22005 21.3454Z" fill="#02A0E3"/>
<path d="M16.8872 0.57373C16.9261 1.30082 16.9737 2.02717 17.0015 2.75425C17.0506 4.06052 17.0857 5.36752 17.1311 6.67378C17.1853 8.19483 17.2419 9.71563 17.301 11.2362C17.3567 12.7006 17.4126 14.165 17.4687 15.6295C17.5134 16.7388 17.5654 17.8488 17.6152 18.9581L16.8982 19.0013C16.7708 17.4963 16.6439 15.9914 16.5174 14.4865C16.4332 13.4614 16.3607 12.4414 16.2772 11.4192C16.174 10.165 16.0627 8.91142 15.9594 7.65714C15.8759 6.64376 15.8012 5.63038 15.7185 4.61773C15.6145 3.35613 15.5032 2.0938 15.4014 0.830004C15.3948 0.746532 15.4014 0.662328 15.4014 0.578856L16.8872 0.57373Z" fill="#03A0E3"/>
<path d="M18.8633 18.9698C18.9121 17.6547 18.9609 16.3397 19.0097 15.0246C19.031 14.474 19.0537 13.9263 19.072 13.3728C19.1159 12.0548 19.154 10.7368 19.2009 9.4247C19.2536 7.92318 19.3102 6.42117 19.3708 4.91867C19.4284 3.47329 19.4872 2.02766 19.5473 0.581785L21.0346 0.57373C20.9951 1.22467 20.9614 1.87633 20.9138 2.52654C20.8545 3.31659 20.7798 4.10592 20.7131 4.89597C20.6047 6.18759 20.4968 7.47946 20.3894 8.77157C20.3272 9.5338 20.2708 10.296 20.2086 11.059C20.1016 12.3696 19.9889 13.6796 19.8834 14.9902C19.8029 15.9758 19.7245 16.9613 19.6483 17.9469C19.622 18.291 19.6081 18.6359 19.589 18.9801L18.8633 18.9698Z" fill="#03A0E3"/>
<path d="M36.2627 13.8999C36.2715 14.3817 36.2854 14.8628 36.2876 15.3446C36.2912 15.9567 36.2876 16.5688 36.2876 17.1809C36.2614 17.1899 36.2367 17.2028 36.2143 17.219C34.6716 18.7747 33.1291 20.3287 31.5868 21.881C31.0954 22.3752 30.5945 22.8592 30.098 23.3454L29.0596 22.5041C29.4931 21.9689 29.9208 21.4285 30.3624 20.8998C31.889 19.0722 33.4188 17.2471 34.9518 15.4244C35.3839 14.9155 35.8255 14.4125 36.2627 13.8999Z" fill="#A0D8F6"/>
<path d="M7.42528 22.521L6.36341 23.3506C6.3231 23.3302 6.28505 23.3057 6.2499 23.2773C4.68225 21.7011 3.11483 20.1235 1.54767 18.5443L0.206055 17.1905V13.9131C0.269767 13.9797 0.338605 14.0434 0.397923 14.1144C2.02123 16.0499 3.64308 17.9856 5.26347 19.9216C5.98651 20.7885 6.70711 21.655 7.42528 22.521Z" fill="#A0D8F6"/>
<path d="M36.2631 13.9C35.8237 14.4089 35.3843 14.9141 34.9522 15.4281C33.4202 17.2513 31.8904 19.0765 30.3628 20.9036C29.9234 21.4323 29.4935 21.9726 29.06 22.5079L28.373 22.0642C30.1174 19.767 31.8618 17.47 33.6062 15.1733C34.4596 14.0506 35.314 12.9296 36.1693 11.8103C36.2043 11.7676 36.2415 11.7268 36.2807 11.688C36.2748 12.4265 36.2689 13.1639 36.2631 13.9Z" fill="#02A0E3"/>
<path d="M7.42747 22.5211C6.70931 21.6551 5.98871 20.7887 5.26566 19.9217C3.64528 17.9853 2.02343 16.0495 0.400119 14.1146C0.340801 14.0413 0.271963 13.9798 0.208251 13.9132C0.208251 13.1888 0.206542 12.4646 0.203125 11.7407C0.587594 12.2298 0.979385 12.7138 1.35653 13.2095C3.5491 16.0896 5.73898 18.9696 7.92618 21.8496C7.97606 21.9333 8.01611 22.0225 8.04555 22.1154L7.42747 22.5211Z" fill="#03A0E3"/>
<path d="M36.2509 18.8887C36.2649 19.1003 36.2883 19.3126 36.289 19.525C36.289 20.1678 36.2846 20.8115 36.2817 21.4543L31.7032 24.9785L30.6816 23.9248C30.7703 23.8575 30.864 23.7967 30.9453 23.7213C32.4099 22.3799 33.8711 21.0375 35.329 19.6941C35.6307 19.4195 35.9434 19.1574 36.2509 18.8887Z" fill="#A0D8F6"/>
<path d="M5.80514 23.9212C5.51221 24.2199 5.21928 24.5201 4.92635 24.8152C4.86827 24.8589 4.80476 24.8948 4.73741 24.9221C4.6719 24.8922 4.60874 24.8575 4.54847 24.8181C3.49247 24.0046 2.44159 23.1882 1.38411 22.3777C0.99452 22.0789 0.594672 21.7919 0.199219 21.5034L0.221188 18.896C0.267998 18.926 0.312993 18.9588 0.355936 18.9941C1.93775 20.4439 3.5203 21.8944 5.10357 23.3456C5.32327 23.5477 5.56933 23.7293 5.80514 23.9212Z" fill="#A0D8F6"/>
<path d="M36.2494 18.8889C35.9418 19.1576 35.6291 19.4198 35.3274 19.6943C33.8628 21.0343 32.4015 22.3767 30.9437 23.7215C30.8624 23.7947 30.7687 23.8577 30.6801 23.9251L30.0986 23.351C30.5951 22.8626 31.0961 22.3786 31.5874 21.8866C33.1312 20.3333 34.6734 18.7788 36.2142 17.2231C36.2366 17.2069 36.2613 17.194 36.2875 17.1851L36.2494 18.8889Z" fill="#03A0E3"/>
<path d="M5.80465 23.9214C5.56884 23.7296 5.32425 23.548 5.10016 23.343C3.51639 21.8961 1.93482 20.4466 0.355448 18.9944C0.312505 18.959 0.267511 18.9263 0.220701 18.8962C0.216307 18.328 0.211425 17.7596 0.206055 17.1909L1.54767 18.5418C3.11483 20.12 4.68225 21.6969 6.2499 23.2727C6.28505 23.301 6.3231 23.3255 6.36341 23.3459L5.80465 23.9214Z" fill="#02A0E3"/>
<path d="M33.151 26.7745L32.248 25.6154C32.6318 25.3499 33.0155 25.0841 33.3993 24.818L36.278 22.833L36.2846 25.0384C35.8452 25.2793 35.4058 25.5188 34.9715 25.7604C34.3642 26.0982 33.7574 26.4362 33.151 26.7745Z" fill="#A0D8F6"/>
<path d="M0.204102 25.0438C0.212401 24.3219 0.220213 23.5999 0.227536 22.8779C0.27099 22.8936 0.31291 22.9132 0.352763 22.9365C1.29233 23.5896 2.22897 24.2472 3.17073 24.8981C3.52078 25.1405 3.88109 25.3689 4.23626 25.604C3.96896 25.9635 3.70313 26.3237 3.43071 26.6818C3.39346 26.7182 3.35131 26.7492 3.30548 26.774C3.2204 26.7418 3.13704 26.7051 3.05576 26.6642C2.10521 26.1253 1.15465 25.5852 0.204102 25.0438Z" fill="#A0D8F6"/>
<path d="M36.2782 22.8329L33.3994 24.8179C33.0152 25.0829 32.6315 25.3487 32.2482 25.6153L31.7012 24.9768L36.2796 21.4526C36.2796 21.9139 36.2792 22.374 36.2782 22.8329Z" fill="#03A0E3"/>
<path d="M4.23529 25.6038C3.88011 25.3688 3.51981 25.1403 3.16976 24.8979C2.22799 24.247 1.29135 23.5895 0.351785 22.9364C0.311932 22.913 0.270013 22.8934 0.226558 22.8778C0.217771 22.4194 0.208006 21.9613 0.197266 21.5034C0.592719 21.7963 0.992567 22.0789 1.38216 22.3777C2.44183 23.1882 3.49271 24.0046 4.55092 24.8181C4.61048 24.8574 4.6729 24.8922 4.73766 24.9221L4.23529 25.6038Z" fill="#03A0E3"/>
<path d="M36.2809 26.2012V28.1284C36.1762 28.1664 36.0714 28.2016 35.9667 28.244L34.3827 28.8488L33.6504 27.5558L36.2809 26.2012Z" fill="#A0D8F6"/>
<path d="M2.88562 27.5043C2.67471 27.8704 2.4638 28.2416 2.24996 28.6084C2.20016 28.6941 2.13865 28.7725 2.08226 28.8545C1.85744 28.7754 1.63262 28.6978 1.40926 28.618L0.197266 28.1786C0.208006 27.5328 0.219235 26.887 0.230952 26.2412C1.01234 26.63 1.79299 27.021 2.57438 27.4054C2.67537 27.4465 2.77944 27.4795 2.88562 27.5043V27.5043Z" fill="#A0D8F6"/>
<path d="M36.2806 26.2013L33.6552 27.5559L33.1514 26.7746C33.7577 26.4373 34.3643 26.0998 34.9712 25.762C35.4106 25.5204 35.8463 25.2809 36.2842 25.04L36.2806 26.2013Z" fill="#03A0E3"/>
<path d="M2.88635 27.5042C2.78094 27.4796 2.67761 27.4468 2.57731 27.4061C1.79373 27.0216 1.01307 26.6306 0.233883 26.2418C0.225095 25.8425 0.215819 25.4432 0.206055 25.0439C1.15758 25.5843 2.1096 26.1244 3.06211 26.6643C3.14339 26.7052 3.22674 26.7419 3.31183 26.7742L2.88635 27.5042Z" fill="#03A0E3"/>
<path d="M36.284 29.1797L36.2891 30.9853L35.3495 31.1523L34.7754 29.7069L36.284 29.1797Z" fill="#A0D8F6"/>
<path d="M0.197266 30.9863V29.1821L1.70731 29.6947C1.51447 30.1828 1.32138 30.6734 1.12805 31.1664L0.197266 30.9863Z" fill="#A0D8F6"/>
<path d="M36.2829 29.1796L34.7707 29.7068C34.6418 29.4213 34.5132 29.1359 34.3848 28.8509L35.9688 28.2461C36.0735 28.2065 36.1782 28.1684 36.2829 28.1304V29.1796Z" fill="#03A0E3"/>
<path d="M1.71122 29.6959L0.201172 29.1833C0.201172 28.8489 0.201172 28.5146 0.201172 28.1802L1.41316 28.6195C1.63652 28.6993 1.86134 28.7769 2.08617 28.856L1.71122 29.6959Z" fill="#03A0E3"/>
<path d="M35.9943 33.6196L35.6143 32.0527L36.2821 31.9297V33.6255L35.9943 33.6196Z" fill="#A0D8F6"/>
<path d="M36.2841 31.9294L35.6162 32.0524L35.3496 31.1518L36.2928 30.9849C36.2889 31.2997 36.286 31.6146 36.2841 31.9294Z" fill="#03A0E3"/>
<path d="M0.197266 30.9863L1.13024 31.1679C1.0409 31.4608 0.951801 31.7537 0.862946 32.0466L0.203857 31.9331L0.197266 30.9863Z" fill="#03A0E3"/>
<path d="M0.20166 31.9302L0.860749 32.0437C0.729907 32.5709 0.599066 33.0981 0.468224 33.6252H0.197266C0.200195 33.06 0.20166 32.495 0.20166 31.9302Z" fill="#A0D8F6"/>
<path d="M35.9951 33.6196L36.288 33.6255C36.288 33.9384 36.2861 34.2508 36.2822 34.5627H36.1357L35.9951 33.6196Z" fill="#03A0E3"/>
<path d="M0.197266 33.6255H0.471886C0.417694 33.9428 0.363258 34.2601 0.308578 34.5774L0.206053 34.5649L0.197266 33.6255Z" fill="#03A0E3"/>
<path d="M36.1328 34.5635H36.2793V35.8024H36.2602C36.2187 35.3889 36.1763 34.976 36.1328 34.5635Z" fill="#A0D8F6"/>
<path d="M0.206787 34.5635L0.309312 34.5759L0.271231 35.0475C0.264281 35.2054 0.242459 35.3623 0.206055 35.5161L0.206787 34.5635Z" fill="#A0D8F6"/>
</svg>
